#define image_width  16
#define image_height 16
static unsigned char image_bits[] = {
 0x00,0x00,0x00,0x00,0xf0,0x3f,0x10,0x20,0xfc,0x2f,0x04,0x28,
 0x04,0x28,0x04,0x28,0x04,0x28,0x04,0x28,0x04,0x28,0x04,0x38,
 0x04,0x08,0xfc,0x0f,0x00,0x00,0x00,0x00};
